<?xml version="1.0" standalone="no"?>
<!DOCTYPE svg PUBLIC "-//W3C//DTD SVG 20010904//EN"
 "http://www.w3.org/TR/2001/REC-SVG-20010904/DTD/svg10.dtd">
<svg version="1.0" xmlns="http://www.w3.org/2000/svg"
 width="960.000000pt" height="480.000000pt" viewBox="0 0 960.000000 480.000000"
 preserveAspectRatio="xMidYMid meet">
<metadata>
Created by potrace 1.13, written by Peter Selinger 2001-2015
</metadata>
<g transform="translate(0.000000,480.000000) scale(0.100000,-0.100000)"
fill="#000000" stroke="none">
<path d="M7480 3690 c-469 -45 -1099 -191 -1592 -369 -90 -32 -327 -121 -527
-196 -201 -75 -437 -161 -525 -191 l-160 -54 -185 84 c-537 243 -972 394
-1393 480 -263 55 -323 61 -573 61 -194 -1 -248 -4 -347 -23 -516 -97 -893
-354 -971 -663 l-14 -54 -49 -2 c-375 -18 -668 -76 -848 -171 -90 -47 -194
-144 -234 -219 -60 -114 -80 -316 -42 -427 47 -137 209 -321 386 -438 489
-326 1166 -432 1964 -308 513 80 1167 244 1798 452 l153 50 147 -65 c81 -36
257 -115 392 -177 200 -92 535 -240 767 -341 l43 -18 21 40 c11 22 19 45 17
50 -2 6 -85 45 -184 88 -230 100 -1026 461 -1037 471 -4 3 140 58 320 120 180
62 471 164 646 226 176 63 325 114 333 114 7 0 75 -27 151 -61 820 -363 1739
-645 2173 -666 290 -14 614 61 915 211 419 209 615 488 566 805 -33 213 -141
380 -319 495 -125 81 -264 129 -474 164 l-100 17 -28 79 c-71 201 -228 334
-456 387 -219 49 -516 69 -734 49z m467 -115 c283 -35 482 -135 581 -293 58
-92 64 -88 -111 -88 -327 -1 -1022 -140 -1697 -339 -206 -61 -783 -251 -1075
-355 l-121 -43 -232 114 c-208 102 -254 129 -222 129 6 0 117 45 248 101 810
344 1534 606 1985 719 287 72 418 83 644 55z m-5147 -186 c273 -32 718 -153
1133 -308 167 -63 423 -169 532 -221 l80 -37 -110 -53 c-567 -269 -1125 -499
-1180 -487 -11 3 -112 41 -225 85 -617 240 -1226 390 -1600 393 -133 1 -133 1
-109 69 50 145 189 281 397 388 312 161 676 218 1082 171z m5803 -459 c11 -10
-10 -120 -39 -204 -94 -270 -367 -532 -636 -610 -192 -55 -435 -33 -611 56
l-58 29 53 27 c154 78 150 292 -7 363 -58 27 -167 26 -211 -2 -58 -35 -79 -82
-79 -174 0 -70 4 -87 29 -133 66 -118 223 -226 401 -274 66 -18 109 -21 250
-22 198 -1 243 8 400 83 288 137 520 413 596 709 10 41 19 92 19 114 0 45 -1
45 160 24 163 -22 247 -44 348 -91 196 -92 281 -235 270 -456 -4 -79 -8 -96
-48 -176 -76 -154 -247 -302 -475 -413 -133 -64 -311 -125 -465 -157 -110 -24
-148 -27 -315 -27 -157 -1 -211 3 -310 22 -458 87 -1095 291 -1714 548 -113
47 -211 89 -219 93 -20 11 677 262 1133 408 452 144 865 247 1105 277 55 6
414 -5 423 -14z m-7411 -325 c39 -271 319 -539 692 -660 151 -49 224 -60 386
-60 210 1 426 43 875 171 l230 66 190 -84 c105 -46 241 -106 302 -134 62 -27
113 -52 113 -55 0 -4 -8 -9 -17 -12 -10 -3 -92 -37 -181 -76 -563 -245 -1176
-426 -1643 -486 -515 -65 -1081 13 -1474 205 -257 126 -476 321 -535 478 -28
73 -28 215 0 305 67 217 376 351 890 386 175 12 164 15 172 -44z m328 44 c320
-29 688 -113 1119 -255 174 -58 451 -161 464 -174 10 -9 -288 -117 -438 -158
-330 -91 -517 -94 -757 -13 -338 114 -571 337 -611 584 -4 27 -4 27 52 27 31
0 108 -5 171 -11z m3625 -121 c124 -62 225 -115 225 -118 0 -3 -42 -22 -93
-42 -50 -20 -236 -95 -412 -166 -176 -71 -416 -167 -533 -212 l-212 -82 -118
52 c-64 29 -193 86 -287 127 -93 41 -171 76 -173 78 -2 2 29 13 70 25 264 76
898 292 1188 404 63 25 116 45 117 45 2 1 104 -50 228 -111z"/>
</g>
</svg>
